# xmcd
#
# Track frame offsets:
#  150
#  11026
#  21478
#  34288
#  47760
#  57927
#  72891
#  84671
#  97805
#  111103
#  124754
#  134017
#  145558
#  162028
#  173907
#  185184
#
# Disc length: 2638 seconds
#
# Revision: 0
# Processed by: cddbd v1.5.1PL0 Copyright (c) Steve Scherf et al.
# Submitted via: Collectorz.com Music Collector 6.9
#
DISCID=e00a4c10
DTITLE=Various Artist - I Can't Help If I'm Still In Love With You
DYEAR=2004
DGENRE=Country
TTITLE0=Hank Williams - I Can't Help If I'm Still In Love with You
TTITLE1=Don Williams - Always Something There To Remind Me
TTITLE2=Bill Anderson - Still
TTITLE3=T. Graham Brown - I Wish I Could Hurt That Way Again
TTITLE4=Billie Jo Spears - I Stayed Long Enough
TTITLE5=Kenny Rogers and The First Edition - For The Good Times
TTITLE6=Charlie Pride - There Goes My Everything
TTITLE7=Patti Page - Down The Trail of Achin' Hearts
TTITLE8=Willie Nelson - You'll Always Have Someone
TTITLE9=Anne Murray - There Goes My Everything
TTITLE10=Roger Miller - One Dying And A Burying
TTITLE11=Jerry Lee Lewis - I Carn't Seem To Say Goodbye
TTITLE12=Ed Bruce - After All
TTITLE13=Tom Jones - What In The World's Come Over You
TTITLE14=Charlie Feathers - Defrost Your Heart
TTITLE15=Gene Autry - Goodbye Little Darlin' Goodbye
EXTD=
EXTT0=
EXTT1=
EXTT2=
EXTT3=
EXTT4=
EXTT5=
EXTT6=
EXTT7=
EXTT8=
EXTT9=
EXTT10=
EXTT11=
EXTT12=
EXTT13=
EXTT14=
EXTT15=
PLAYORDER=
